PathFileType	4	(X/Y/Z)	RBDS04\RBDS04runT45.trc
DataRate	CameraRate	NumFrames	NumMarkers	Units	OrigDataRate	OrigDataStartFrame	OrigNumFrames
150.000000	150.000000	5	33	mm	150.000000	562	4500
Frame#	Time	L.ASIS			L.Heel.Bottom			L.Heel.Lateral			L.Heel.Top			L.Iliac.Crest			L.MT1			L.MT5			L.PSIS			L.Shank.Bottom.Lateral			L.Shank.Bottom.Medial			L.Shank.Top.Lateral			L.Shank.Top.Medial			L.Thigh.Bottom.Lateral			L.Thigh.Bottom.Medial			L.Thigh.Top.Lateral			L.Thigh.Top.Medial			R.ASIS			R.ASY			R.Heel.Bottom			R.Heel.Lateral			R.Heel.Top			R.Iliac.Crest			R.MT1			R.MT5			R.PSIS			R.Shank.Bottom.Lateral			R.Shank.Bottom.Medial			R.Shank.Top.Lateral			R.Shank.Top.Medial			R.Thigh.Bottom.Lateral			R.Thigh.Bottom.Medial			R.Thigh.Top.Lateral			R.Thigh.Top.Medial			
		X1	Y1	Z1	X2	Y2	Z2	X3	Y3	Z3	X4	Y4	Z4	X5	Y5	Z5	X6	Y6	Z6	X7	Y7	Z7	X8	Y8	Z8	X9	Y9	Z9	X10	Y10	Z10	X11	Y11	Z11	X12	Y12	Z12	X13	Y13	Z13	X14	Y14	Z14	X15	Y15	Z15	X16	Y16	Z16	X17	Y17	Z17	X18	Y18	Z18	X19	Y19	Z19	X20	Y20	Z20	X21	Y21	Z21	X22	Y22	Z22	X23	Y23	Z23	X24	Y24	Z24	X25	Y25	Z25	X26	Y26	Z26	X27	Y27	Z27	X28	Y28	Z28	X29	Y29	Z29	X30	Y30	Z30	X31	Y31	Z31	X32	Y32	Z32	X33	Y33	Z33	

563	3.746666666666667	2197.96069092854	977.455529891143	898.9292760360601	1509.186088476728	417.7482570903437	997.6927794530919	1515.760011371215	380.7163545142744	956.2983311038178	1553.968854458333	407.7521638013997	986.989283631625	2160.517344572779	1061.698669751583	869.3135413917773	1540.556564368808	209.0669755899546	1049.886542281999	1498.643835525711	226.7618531935115	958.0841096921758	2046.407455433388	1033.942398263311	965.6568637667691	1631.241886711066	390.6836620396448	929.4717370370859	1609.41808391071	424.3539369564319	960.7639900466702	1692.189857579104	441.0860700311359	912.1400118425832	1672.66342379697	478.3989115419918	944.8152707513932	1971.334016875335	658.7180903443843	863.3622773068221	1916.338521490515	685.9044605334669	904.3028806925566	2002.096103006491	762.4677847407829	840.9109100164391	1951.95290901017	787.9225281657385	881.8390815180682	2206.681612211368	986.1788768198638	1084.188252475082	-641.6829559535328	-9702.606038101787	-28229.31522374788	2317.138223156891	112.7004925546337	1045.760461189369	2345.009029050495	127.6186665061215	1088.977592113845	2321.33919085062	157.7395203844621	1051.396224849949	2151.519658232317	1046.467858251507	1142.15337451682	2527.615725486554	149.7915921798063	1024.995624639977	2497.137809675944	128.5569355668417	1116.619019299202	2048.336792430616	1032.950962286392	1052.560065126946	2360.056049816373	257.297480824881	1108.932907425001	2324.288646141906	259.8159106099552	1068.199389354559	2343.671866823825	334.5930127939625	1125.852174808394	2310.044768145651	336.5668821288941	1083.89578429328	2298.750852479227	666.4520464689411	1152.405378200097	2249.237861377301	631.1152062256097	1111.564690047406	2225.292838257074	747.3997715227551	1169.126724401066	2176.758978910203	712.0312067319227	1131.764141514268	
564	3.753333333333333	2199.008128195705	978.2345850007708	898.6343010839205	1507.659347419133	437.0692696571981	998.0847154482641	1512.460504531159	399.5708732696158	956.9156975699755	1551.77952354949	424.9743888468651	987.3524776791036	2160.718325330125	1062.77883904997	869.0919975401365	1529.381956899571	227.9746362845068	1051.449246225529	1488.230896309117	247.1093384905193	959.5702850691296	2047.185717249411	1034.089507079458	964.9902689949932	1628.558376452877	403.6730081074973	930.1200723240421	1608.592510444596	438.769812652738	961.2746141116365	1692.175884065563	450.5875618209513	912.4685867900221	1674.714641643525	489.1714092281642	944.8642997489735	1977.023723148251	656.001847542148	862.506666192564	1921.255851045139	682.4117771419042	902.9843210425837	2006.322195993044	760.1980227012759	840.1693807868335	1955.296521922309	784.9938758979605	880.5063588570475	2207.049386733489	986.1411691315532	1084.02873010554	-919.2228333634494	-10645.78466545358	-31047.7521524413	2336.270721486961	102.4181193951729	1044.08463951498	2364.159700576051	118.4517486763755	1086.983322144613	2337.662175043858	147.573986473206	1050.46567360584	2151.921583682096	1046.283677554632	1141.735383665259	2544.116791700183	153.0365700334958	1020.395596521633	2516.589445581989	128.3096357274213	1112.228689267754	2049.000227097881	1032.739176883755	1052.050012427458	2370.540245407422	249.8936939835666	1107.485437883	2334.46871147655	250.4938405442258	1067.049071123186	2349.499286693309	325.9336549672404	1125.020321486138	2315.490731936467	326.192218699397	1083.325751225202	2291.079125441287	659.010716407176	1152.850951840819	2241.677886219727	626.2913639501832	1109.845499278105	2220.18097104861	742.2777544839879	1169.196399750988	2171.20745404181	709.1221106866996	1130.220712386018	
565	3.76	2200.076267124627	978.5474414449125	898.3139574713326	1508.245346622585	456.1643761075718	998.8066603129087	1511.162125039593	418.5008804314979	957.6883111426632	1551.591912800902	441.9533868692419	987.9420152836535	2160.935956078889	1063.304632736552	868.7995165775781	1519.834754465186	246.7444128112413	1052.345892893429	1479.580737084378	267.8636903797299	960.5207489144592	2047.960442122046	1033.692903242453	964.2643020831989	1627.401205763618	416.4463129779209	930.7091187153251	1609.39517249573	452.8117337411065	961.779706437432	1693.484456720959	459.7425323327347	912.7819859391187	1678.204709615344	499.4200302222466	944.9710261568049	1982.948285245796	652.7542670383733	861.6543000990678	1926.592144674284	678.2680893356734	901.9515804109716	2010.63999358185	757.4342790822687	839.53050125804	1958.917713111463	781.460092189346	879.5340785856077	2207.350679690629	985.8696466951347	1083.820516645359	-1215.904298222018	-11645.57802266461	-34041.10389001552	2352.369826050911	93.66944885763832	1042.15338553597	2380.307462326215	110.5405231632314	1084.811399174466	2351.289785379748	138.7762505101471	1049.323210486972	2152.23564775231	1046.002701079319	1141.201616449772	2557.370490053087	156.0541964497578	1016.267458990307	2532.627566995878	128.0957458647667	1108.109859030759	2049.622642730767	1032.108732834053	1051.467410462593	2378.848892138498	243.2868638781075	1105.989005129167	2342.605590259617	242.1733314697042	1065.792823756307	2353.67799744386	318.0136706276726	1124.041444835275	2319.417334037294	316.7347709137613	1082.55391170894	2283.391637840731	651.6715545412311	1153.252024287007	2234.22803368361	621.5325162295198	1108.117829585621	2215.04893089199	737.1683986805862	1169.209188723162	2165.79646391426	706.1855858257192	1128.666574475265	
566	3.766666666666667	2201.175086164088	978.3716236532206	897.9891487203444	1511.061200337352	474.875680185332	999.869631177522	1511.982212679683	437.3620259041387	958.6167246047769	1553.5213266343	458.5385649566664	988.7453563819146	2161.181305853152	1063.226102273783	868.4224644394509	1512.044452875301	265.2217011527621	1052.514985209933	1472.829034269087	288.8792876469178	960.9198172143183	2048.726589606814	1032.721185520771	963.4705648842111	1627.844184593498	428.8848238496774	931.2061136011946	1611.879096196631	466.3457013249786	962.2345249271208	1696.168589208494	468.4633231886492	913.0459783023877	1683.159224134491	509.0409626030219	945.1026482320133	1989.048744516529	649.039531761823	860.7976137230359	1932.32016751016	673.552956882512	901.2246789661638	2015.020783594235	754.2199210471135	838.9831359525407	1962.813169625701	777.3800317128072	878.9288176792008	2207.585866130808	985.3376349376446	1083.5950596108	-1532.321703087325	-12703.63142035248	-37214.62523028647	2365.0462742406	86.23294965141309	1039.885439565433	2393.014287068163	103.5977971436987	1082.430130920777	2361.912513737489	131.1719284328651	1047.894815834237	2152.426700485581	1045.571733462491	1140.58817469593	2567.30243808781	158.2792858667237	1012.792628375804	2544.938108634863	127.3347741407273	1104.407345170455	2050.187338618771	1031.024073001236	1050.803639158342	2384.799990008318	237.2953881809259	1104.470355691863	2348.532441862406	234.7197767689105	1064.408347721952	2356.100899387676	310.7581226021369	1122.916928595061	2321.743877857018	308.163066817866	1081.542417956118	2275.923927138223	644.6093884262157	1153.531704976345	2227.072818158355	616.9028222530486	1106.434164265762	2210.050609957525	732.187464886593	1169.097322748095	2160.671709149517	703.262337331044	1127.117341252403	
567	3.773333333333333	2202.307695940725	977.6925769144386	897.6887234634037	1516.123459771509	493.0251564752041	1001.252995586166	1514.961053836977	455.973462698017	959.686631254968	1557.58704869146	474.5752790738241	989.7325145062304	2161.468911819855	1062.511013987063	867.9583684466013	1506.124340027176	283.2754173697928	1051.949730695517	1468.098466084079	309.9802616853669	960.7852933155667	2049.47010025201	1031.145282083053	962.6049064331964	1629.922244973804	440.8768804147047	931.5868087896653	1616.056995937645	479.2567326909167	962.5982214118123	1700.253854282971	476.6654259328138	913.2296594111828	1689.573847529976	517.9460451832889	945.223263996721	1995.298806526917	644.892091959246	859.9236752412193	1938.420289294746	668.3157268123462	900.7879987872734	2019.461755379711	750.5716709579764	838.5071273755749	1966.978018770777	772.7855742047818	878.6592476919581	2207.757914150161	984.5061167495426	1083.395533583291	-1869.069596385036	-13821.59091517433	-40573.57326101892	2373.998289115969	79.83649486535022	1037.234011136785	2401.933532856892	97.30745124934053	1079.8294904171	2369.29402508877	124.5367065010544	1046.125911325802	2152.461007478347	1044.907306669727	1139.939683241728	2573.898053117674	159.1660623245291	1010.100143656464	2553.298590218379	125.4916041881378	1101.242076704776	2050.670974836857	1029.441486317729	1050.054592505894	2388.27709187548	231.6897845125314	1102.956670517596	2352.13060008031	227.9446000541523	1062.890540364848	2356.712500231501	304.0369468968584	1121.661564725178	2322.421878520171	300.3867308494321	1080.281518661905	2268.894996699961	637.9419223356368	1153.618216549778	2220.36870907818	612.4228435898592	1104.835960142326	2205.327899545971	727.4005316193069	1168.806851788195	2155.947667472861	700.3515955918127	1125.591913360216	
